<svg xmlns="http://www.w3.org/2000/svg" height="20" viewBox="0 -960 960 960" width="20" color='white' margin-top="4px"><path d="M481.063-166.117q-130.767 0-222.28-91.564-91.512-91.565-91.512-222.371 0-124.909 84.411-214.37 84.412-89.46 206.923-97.73 6.001 0 12.216.461 6.215.462 13.099 1.692-27.499 28.923-43.095 65.25t-15.596 76.677q0 94.255 64.895 159.126 64.895 64.87 159.03 64.87 39.723 0 76.271-15.612 36.549-15.613 65.343-43.078 1.231 6.884 1.692 13.099.462 6.215.462 12.216-7.886 122.511-97.438 206.923-89.552 84.411-214.421 84.411Z" fill="white"/></svg>