<svg xmlns="http://www.w3.org/2000/svg" height="20" viewBox="0 -960 960 960" width="20"><path fill="white" d="M479.781-310.117q-70.896 0-120.28-49.66t-49.384-120.499q0-70.839 49.66-120.319 49.66-49.481 120.499-49.481t120.319 49.7q49.481 49.7 49.481 120.595 0 70.896-49.7 120.28t-120.595 49.384ZM214.077-456.116H60.117v-47.96h153.96v47.96Zm685.999 0H746.115v-47.96h153.961v47.96Zm-443.96-289.999v-153.961h47.96v153.961h-47.96Zm0 685.999v-153.961h47.96v153.96h-47.96ZM275.924-651.847l-93.269-90.538 33.96-37.96 94.308 94.269-34.999 34.229Zm467.461 468.192-91.923-90.884 32.614-34.807 93.269 91.731-33.96 33.96Zm-93.538-500.421 92.538-91.269 33.96 31.96-90.269 95.115-36.229-35.806ZM179.655-216.615l94.884-90.115 32.037 30.806-87.845 94.154-39.076-34.845Z"/></svg>